<svg width="58" height="58" viewBox="0 0 58 58" fill="none" xmlns="http://www.w3.org/2000/svg">
<path d="M9.0625 1.8125H48.9375C50.9394 1.8125 52.5625 3.43561 52.5625 5.4375V54.375C52.5625 56.3769 50.9394 58 48.9375 58H9.0625C7.06061 58 5.4375 56.3769 5.4375 54.375V5.4375C5.4375 3.43561 7.06061 1.8125 9.0625 1.8125Z" fill="#ECCE93"/>
<path d="M9.0625 42.438V5.4375H48.9375V54.375H20.9995L9.0625 42.438Z" fill="#E4EDFB"/>
<path d="M20.9995 42.438V54.375L9.0625 42.438H20.9995Z" fill="#E76E54"/>
<path d="M19.9375 7.25V0H38.0625V7.25C38.0625 9.25189 36.4394 10.875 34.4375 10.875H23.5625C21.5606 10.875 19.9375 9.25189 19.9375 7.25Z" fill="#E76E54"/>
</svg>
