<svg width="58" height="58" viewBox="0 0 58 58" fill="none" xmlns="http://www.w3.org/2000/svg">
<path d="M3.625 1.8125H43.5C45.5019 1.8125 47.125 3.43561 47.125 5.4375V54.375C47.125 56.3769 45.5019 58 43.5 58H3.625C1.62311 58 0 56.3769 0 54.375V5.4375C0 3.43561 1.62311 1.8125 3.625 1.8125Z" fill="#ECCE93"/>
<path d="M3.625 42.438V5.4375H43.5V54.375H15.562L3.625 42.438Z" fill="#EFEFEF"/>
<path d="M15.562 42.438V54.375L3.625 42.438H15.562Z" fill="#E76E54"/>
<path d="M14.5 7.25V0H32.625V7.25C32.625 9.25189 31.0019 10.875 29 10.875H18.125C16.1231 10.875 14.5 9.25189 14.5 7.25Z" fill="#E76E54"/>
<path d="M58 41.6875C58 50.6965 50.6965 58 41.6875 58C32.6785 58 25.375 50.6965 25.375 41.6875C25.375 32.6785 32.6785 25.375 41.6875 25.375C50.6965 25.375 58 32.6785 58 41.6875Z" fill="#48C8EF"/>
<path d="M37.9501 48.6711L34.4375 45.1567C33.7299 44.4487 33.7299 43.3013 34.4375 42.5938C35.1451 41.8862 36.2925 41.8862 37.0005 42.5938L38.1749 43.7664L46.3838 36.9244C47.1529 36.2828 48.2968 36.3867 48.9375 37.1563C49.5791 37.9253 49.4751 39.0692 48.7056 39.71L37.9501 48.6711Z" fill="white"/>
<path d="M19.9375 14.5H34.4375C35.4384 14.5 36.25 15.3116 36.25 16.3125C36.25 17.3134 35.4384 18.125 34.4375 18.125H19.9375C18.9366 18.125 18.125 17.3134 18.125 16.3125C18.125 15.3116 18.9366 14.5 19.9375 14.5Z" fill="#77959E"/>
<path d="M10.875 14.5H14.5V18.125H10.875V14.5Z" fill="#77959E"/>
<path d="M10.875 21.75H14.5V25.375H10.875V21.75Z" fill="#77959E"/>
<path d="M10.875 29H14.5V32.625H10.875V29Z" fill="#77959E"/>
<path d="M10.875 36.25H14.5V39.875H10.875V36.25Z" fill="#77959E"/>
<path d="M19.9375 21.75H30.8125C31.8134 21.75 32.625 22.5616 32.625 23.5625C32.625 24.5634 31.8134 25.375 30.8125 25.375H19.9375C18.9366 25.375 18.125 24.5634 18.125 23.5625C18.125 22.5616 18.9366 21.75 19.9375 21.75Z" fill="#77959E"/>
<path d="M19.9375 29H23.5625C24.5634 29 25.375 29.8116 25.375 30.8125C25.375 31.8134 24.5634 32.625 23.5625 32.625H19.9375C18.9366 32.625 18.125 31.8134 18.125 30.8125C18.125 29.8116 18.9366 29 19.9375 29Z" fill="#77959E"/>
</svg>
