<svg width="156" height="50" viewBox="0 0 156 50" fill="none" xmlns="http://www.w3.org/2000/svg">
<path fill-rule="evenodd" clip-rule="evenodd" d="M10.3048 15.6827C7.55901 15.5144 4.93841 13.2335 4.93841 10.2942C4.93841 7.355 7.06051 5.22299 10.3048 4.90569C12.8982 4.69489 15.7511 6.513 16.1422 6.832C16.1938 6.7497 16.2455 6.66719 16.2971 6.58469C16.2965 5.37169 16.296 4.1588 16.2954 2.9462C14.673 1.7948 12.6761 1.3541 10.3048 1.3541C5.21291 1.3541 1.06961 5.3709 1.06961 10.2942C1.06961 15.2175 5.21291 19.2343 10.3048 19.2343C12.6761 19.2343 14.673 18.7933 16.2954 17.6423C16.2979 16.4544 16.3007 15.2665 16.3035 14.0787C16.2366 13.9722 16.1697 13.8657 16.1028 13.7592C15.5729 14.1092 13.2327 15.7574 10.3048 15.6827Z" stroke="#000396" stroke-width="0.974148"/>
<path fill-rule="evenodd" clip-rule="evenodd" d="M22.5197 8.75739V5.42449H30.6966L30.8223 5.30109C30.8229 4.27449 30.8231 3.24789 30.8237 2.22159C30.8165 2.20929 30.6743 1.96929 30.6735 1.96799C26.8113 1.96769 23.0394 1.96739 19.1772 1.96719C19.1172 2.04999 19.0573 2.13299 18.9973 2.21609C18.9948 7.80349 18.992 13.3911 18.9893 18.9785C19.0537 19.0702 19.1181 19.1623 19.1822 19.2541C20.2422 19.2536 21.3026 19.253 22.3626 19.2527C22.4148 19.1558 22.4667 19.0588 22.5189 18.9621C22.5192 16.7128 22.5195 14.4632 22.5197 12.2139C24.4425 12.2139 26.3653 12.2141 28.288 12.2141C28.3777 12.1248 28.4671 12.0352 28.5567 11.9458C28.5581 10.9743 28.5601 10.0027 28.5617 9.03139C28.4907 8.93689 28.4196 8.84229 28.3488 8.74779C26.4058 8.75109 24.4628 8.75409 22.5197 8.75739Z" stroke="#000396" stroke-width="0.974148"/>
<path fill-rule="evenodd" clip-rule="evenodd" d="M36.8829 2.28271L28.6176 18.9785L28.8241 19.2545H31.7403H32.1028H32.2671L32.5955 19.0025C32.9785 18.2387 33.7566 16.7262 33.7566 16.7262H40.0667C40.4384 17.4799 40.8098 18.2412 41.1815 18.9968L41.4246 19.2545H45.0234L45.1877 19.012L36.8829 2.28271ZM35.2738 13.6156L36.9173 10.1447L38.5495 13.6156H35.2738Z" stroke="#000396" stroke-width="0.974148"/>
<path d="M12.2164 19.7575C10.8205 19.7605 9.4243 19.7635 8.0283 19.7668C7.9021 19.8989 7.7755 20.0307 7.6492 20.1625C7.6364 27.9916 7.6234 35.8209 7.6106 43.65L8.0286 44.0528C9.4198 44.0602 10.8113 44.0672 12.2025 44.0741C12.343 43.9327 12.4832 43.7913 12.6236 43.65C12.6136 35.8296 12.6039 28.0093 12.5936 20.1892L12.2164 19.7575Z" fill="#296DC1"/>
<path d="M37.715 19.7524C36.2841 19.7513 34.8532 19.7505 33.4223 19.7494C33.3202 19.8935 33.2177 20.0376 33.1156 20.1817C33.1142 25.3602 33.1131 30.539 33.112 35.7175C28.9964 30.5044 24.881 25.2913 20.7654 20.0779C20.5869 19.9701 20.4087 19.8622 20.2303 19.7546C18.7455 19.7522 17.2605 19.7494 15.7755 19.747C15.6572 19.8919 15.539 20.0368 15.4207 20.182C15.4238 27.9999 15.4268 35.8175 15.4299 43.6356C15.5434 43.777 15.6569 43.9184 15.7702 44.0594C17.1767 44.054 18.5831 44.0486 19.9896 44.0431C20.1195 43.9072 20.2497 43.7715 20.3799 43.6356C20.3804 38.4514 20.381 33.2677 20.3813 28.0835C24.5108 33.3276 28.6402 38.5715 32.7695 43.8157C32.9002 43.893 33.0312 43.9704 33.1622 44.048C34.6989 44.0524 36.2353 44.0562 37.7722 44.0603L38.0673 43.6356C38.0664 35.8175 38.0656 27.9999 38.0648 20.182L37.715 19.7524Z" fill="#296DC1"/>
<path d="M46.1872 26.0011C46.1872 25.4574 46.3318 25.0083 46.6463 24.7035C47.0818 24.2813 47.7 24.2704 47.9554 24.266C49.3843 24.2426 50.383 25.4416 50.5715 25.6767C50.7661 25.6971 50.9604 25.7176 51.1547 25.7383C52.265 24.9312 53.3753 24.1241 54.4856 23.3171C54.5253 23.1174 54.5644 22.9178 54.6038 22.7181C54.1986 22.1077 53.1049 20.6412 51.0709 19.8088C50.4882 19.5705 49.3768 19.2346 47.9554 19.2346C44.0302 19.2346 40.883 22.0105 40.883 26.0011C40.883 32.7679 51.3148 32.5944 51.3148 36.7583C51.3148 38.4931 50.0771 39.5341 48.309 39.5341C48.1188 39.5341 47.4399 39.5344 46.6724 39.1835C45.1771 38.5007 44.6028 37.072 44.4623 36.6869C44.2891 36.6569 44.1162 36.6264 43.943 36.5959C42.6811 37.4278 41.4196 38.2594 40.1577 39.0909C40.1244 39.1713 40.0911 39.2514 40.0575 39.3317C41.3368 42.7082 44.6489 44.5661 48.309 44.5661C53.083 44.5661 56.619 40.9222 56.619 36.7583C56.619 28.7772 46.1872 28.7772 46.1872 26.0011Z" fill="#296DC1"/>
<path d="M75.6187 24.6195C75.7472 24.4847 75.8757 24.3498 76.0043 24.2153C76.0034 22.8542 76.0029 21.4928 76.002 20.1318C75.906 19.9996 75.8105 19.8673 75.7145 19.7349C69.3092 19.7417 62.9035 19.7482 56.4982 19.7548C56.3983 19.8972 56.2978 20.0394 56.1979 20.1816C56.2037 21.5119 56.2098 22.8422 56.2156 24.1725C56.3608 24.3131 56.5068 24.4536 56.6517 24.5942C58.9759 24.6004 61.2997 24.607 63.6236 24.6132C63.6233 30.9619 63.623 37.3103 63.6227 43.6587C63.7185 43.7881 63.814 43.9166 63.9098 44.0455H68.2774C68.3765 43.912 68.4756 43.7785 68.5744 43.6448C68.5744 37.301 68.5741 30.957 68.5741 24.6132C70.9224 24.6151 73.2707 24.6173 75.6187 24.6195Z" fill="#296DC1"/>
<path d="M83.8839 19.4211L72.6118 43.5091L72.8941 43.9071H76.8707H77.365H77.5896L78.037 43.5437C78.5594 42.4419 79.6203 40.2599 79.6203 40.2599H88.226C88.733 41.3472 89.239 42.4455 89.747 43.5355L90.078 43.9068H94.986L95.21 43.5576L83.8839 19.4211ZM81.6894 35.9993L83.9308 30.991L86.1567 35.9993H81.6894Z" fill="#296DC1"/>
<path d="M10.644 13.8488L7.06699 10.3386L10.644 6.82849L14.2211 10.3386L10.644 13.8488Z" fill="#296DC1"/>
<path d="M117.516 34.8555C117.516 36.4492 117.258 37.8359 116.742 39.0156C116.227 40.1875 115.512 41.1289 114.598 41.8398L117.434 44.0664L115.195 46.0469L111.562 43.1289C111.148 43.1992 110.719 43.2344 110.273 43.2344C108.859 43.2344 107.598 42.8945 106.488 42.2148C105.379 41.5352 104.52 40.5664 103.91 39.3086C103.301 38.043 102.992 36.5898 102.984 34.9492V34.1055C102.984 32.4258 103.285 30.9492 103.887 29.6758C104.496 28.3945 105.352 27.4141 106.453 26.7344C107.562 26.0469 108.828 25.7031 110.25 25.7031C111.672 25.7031 112.934 26.0469 114.035 26.7344C115.145 27.4141 116 28.3945 116.602 29.6758C117.211 30.9492 117.516 32.4219 117.516 34.0938V34.8555ZM113.953 34.082C113.953 32.293 113.633 30.9336 112.992 30.0039C112.352 29.0742 111.438 28.6094 110.25 28.6094C109.07 28.6094 108.16 29.0703 107.52 29.9922C106.879 30.9062 106.555 32.25 106.547 34.0234V34.8555C106.547 36.5977 106.867 37.9492 107.508 38.9102C108.148 39.8711 109.07 40.3516 110.273 40.3516C111.453 40.3516 112.359 39.8906 112.992 38.9688C113.625 38.0391 113.945 36.6875 113.953 34.9141V34.082ZM133.008 25.9375V37.1758C133.008 39.043 132.422 40.5195 131.25 41.6055C130.086 42.6914 128.492 43.2344 126.469 43.2344C124.477 43.2344 122.895 42.707 121.723 41.6523C120.551 40.5977 119.953 39.1484 119.93 37.3047V25.9375H123.445V37.1992C123.445 38.3164 123.711 39.1328 124.242 39.6484C124.781 40.1562 125.523 40.4102 126.469 40.4102C128.445 40.4102 129.449 39.3711 129.48 37.293V25.9375H133.008ZM139.629 43H136.113V25.9375H139.629V43ZM146.625 40.1758H155.227V43H142.23V40.9375L150.668 28.7852H142.242V25.9375H155.039V27.9531L146.625 40.1758Z" fill="#F44A4A"/>
</svg>
