<svg width="58" height="58" viewBox="0 0 58 58" fill="none" xmlns="http://www.w3.org/2000/svg">
<g clip-path="url(#clip0)">
<path d="M51.0525 17.7685H1.021C0.457089 17.7685 0 17.3113 0 16.7475V4.49476C0 3.93084 0.457202 3.47375 1.021 3.47375H51.0525C51.6164 3.47375 52.0735 3.93096 52.0735 4.49476V16.7473C52.0736 17.3113 51.6164 17.7685 51.0525 17.7685Z" fill="#E4EAF8"/>
<path d="M12.2526 17.7685H1.021C0.457089 17.7685 0 17.3113 0 16.7475V4.49476C0 3.93084 0.457202 3.47375 1.021 3.47375H12.2526C12.8165 3.47375 13.2736 3.93096 13.2736 4.49476V16.7473C13.2737 17.3113 12.8165 17.7685 12.2526 17.7685Z" fill="#FF5050"/>
<path d="M34.7158 9.59999H17.3578C16.7935 9.59999 16.3368 9.14335 16.3368 8.57899C16.3368 8.01462 16.7935 7.55798 17.3578 7.55798H34.7157C35.28 7.55798 35.7367 8.01462 35.7367 8.57899C35.7367 9.14335 35.2801 9.59999 34.7158 9.59999Z" fill="#707487"/>
<path d="M46.9684 13.6842H27.5684C27.004 13.6842 26.5474 13.2276 26.5474 12.6632C26.5474 12.0989 27.004 11.6422 27.5684 11.6422H46.9684C47.5327 11.6422 47.9894 12.0989 47.9894 12.6632C47.9894 13.2276 47.5327 13.6842 46.9684 13.6842Z" fill="#7F8499"/>
<path d="M23.4842 13.6842H17.3578C16.7935 13.6842 16.3368 13.2276 16.3368 12.6632C16.3368 12.0989 16.7935 11.6422 17.3578 11.6422H23.4842C24.0485 11.6422 24.5052 12.0989 24.5052 12.6632C24.5052 13.2276 24.0485 13.6842 23.4842 13.6842Z" fill="#7F8499"/>
<path d="M6.6368 12.6632C6.07243 12.6632 5.61579 12.2066 5.61579 11.6422C5.61579 11.0779 6.07243 10.6212 6.6368 10.6212C7.48131 10.6212 8.16836 9.93418 8.16836 9.08967C8.16836 8.24516 7.48131 7.55811 6.6368 7.55811C5.79229 7.55811 5.10524 8.24516 5.10524 9.08967C5.10524 9.65403 4.6486 10.1107 4.08423 10.1107C3.51987 10.1107 3.06323 9.65403 3.06323 9.08967C3.06323 7.11926 4.66661 5.51599 6.63691 5.51599C8.60721 5.51599 10.2106 7.11937 10.2106 9.08967C10.2106 11.06 8.60721 12.6632 6.6368 12.6632Z" fill="white"/>
<path d="M6.64677 15.7264C6.08241 15.7264 5.62079 15.2697 5.62079 14.7054C5.62079 14.141 6.07244 13.6844 6.63681 13.6844H6.64677C7.21114 13.6844 7.66778 14.141 7.66778 14.7054C7.66789 15.2697 7.21114 15.7264 6.64677 15.7264Z" fill="white"/>
<path d="M51.0525 36.1473H1.021C0.457089 36.1473 0 35.6901 0 35.1263V22.8737C0 22.3098 0.457202 21.8527 1.021 21.8527H51.0525C51.6164 21.8527 52.0735 22.3099 52.0735 22.8737V35.1263C52.0736 35.6902 51.6164 36.1473 51.0525 36.1473Z" fill="#E4EAF8"/>
<path d="M12.2526 36.1473H1.021C0.457089 36.1473 0 35.6901 0 35.1263V22.8737C0 22.3098 0.457202 21.8527 1.021 21.8527H12.2526C12.8165 21.8527 13.2736 22.3099 13.2736 22.8737V35.1263C13.2737 35.6902 12.8165 36.1473 12.2526 36.1473Z" fill="#FFDC64"/>
<path d="M34.7158 27.9789H17.3578C16.7935 27.9789 16.3368 27.5223 16.3368 26.9579C16.3368 26.3936 16.7935 25.9369 17.3578 25.9369H34.7157C35.28 25.9369 35.7367 26.3936 35.7367 26.9579C35.7368 27.5223 35.2801 27.9789 34.7158 27.9789Z" fill="#707487"/>
<path d="M23.4842 32.0632H17.3578C16.7935 32.0632 16.3368 31.6065 16.3368 31.0422C16.3368 30.4778 16.7935 30.0212 17.3578 30.0212H23.4842C24.0485 30.0212 24.5052 30.4778 24.5052 31.0422C24.5052 31.6064 24.0485 32.0632 23.4842 32.0632Z" fill="#7F8499"/>
<path d="M6.6368 31.0421C6.07243 31.0421 5.61579 30.5854 5.61579 30.0211C5.61579 29.4567 6.07243 29.0001 6.6368 29.0001C7.48131 29.0001 8.16836 28.313 8.16836 27.4685C8.16836 26.624 7.48131 25.9369 6.6368 25.9369C5.79229 25.9369 5.10524 26.624 5.10524 27.4685C5.10524 28.0329 4.6486 28.4895 4.08423 28.4895C3.51987 28.4895 3.06323 28.0329 3.06323 27.4685C3.06323 25.4982 4.66661 23.8948 6.63691 23.8948C8.60721 23.8948 10.2106 25.4982 10.2106 27.4685C10.2106 29.4388 8.60721 31.0421 6.6368 31.0421Z" fill="white"/>
<path d="M6.64677 34.1053C6.08241 34.1053 5.62079 33.6487 5.62079 33.0843C5.62079 32.5199 6.07244 32.0633 6.63681 32.0633H6.64677C7.21114 32.0633 7.66778 32.5199 7.66778 33.0843C7.66778 33.6487 7.21114 34.1053 6.64677 34.1053Z" fill="white"/>
<path d="M51.0525 54.5262H1.021C0.457202 54.5262 0 54.069 0 53.5052V41.2526C0 40.6887 0.457202 40.2316 1.021 40.2316H51.0525C51.6164 40.2316 52.0735 40.6888 52.0735 41.2526V53.5052C52.0736 54.069 51.6164 54.5262 51.0525 54.5262Z" fill="#E4EAF8"/>
<path d="M12.2526 54.5262H1.021C0.457202 54.5262 0 54.069 0 53.5052V41.2526C0 40.6887 0.457202 40.2316 1.021 40.2316H12.2526C12.8165 40.2316 13.2736 40.6888 13.2736 41.2526V53.5052C13.2737 54.069 12.8165 54.5262 12.2526 54.5262Z" fill="#7DF5A5"/>
<path d="M34.7158 46.3579H17.3578C16.7935 46.3579 16.3368 45.9013 16.3368 45.3369C16.3368 44.7725 16.7935 44.3159 17.3578 44.3159H34.7157C35.28 44.3159 35.7367 44.7725 35.7367 45.3369C35.7367 45.9013 35.2801 46.3579 34.7158 46.3579Z" fill="#707487"/>
<path d="M23.4842 50.442H17.3578C16.7935 50.442 16.3368 49.9854 16.3368 49.421C16.3368 48.8566 16.7935 48.4 17.3578 48.4H23.4842C24.0485 48.4 24.5052 48.8566 24.5052 49.421C24.5052 49.9854 24.0485 50.442 23.4842 50.442Z" fill="#7F8499"/>
<path d="M6.6368 49.421C6.07243 49.421 5.61579 48.9644 5.61579 48.4C5.61579 47.8356 6.07243 47.379 6.6368 47.379C7.48131 47.379 8.16836 46.692 8.16836 45.8474C8.16836 45.0029 7.48131 44.3159 6.6368 44.3159C5.79229 44.3159 5.10524 45.0029 5.10524 45.8474C5.10524 46.4118 4.6486 46.8685 4.08423 46.8685C3.51987 46.8685 3.06323 46.4118 3.06323 45.8474C3.06323 43.877 4.66661 42.2738 6.63691 42.2738C8.60721 42.2738 10.2106 43.8772 10.2106 45.8474C10.2106 47.8177 8.60721 49.421 6.6368 49.421Z" fill="white"/>
<path d="M6.64677 52.4841C6.08241 52.4841 5.62079 52.0275 5.62079 51.4631C5.62079 50.8987 6.07244 50.4421 6.63681 50.4421H6.64677C7.21114 50.4421 7.66778 50.8987 7.66778 51.4631C7.66789 52.0275 7.21114 52.4841 6.64677 52.4841Z" fill="white"/>
<path d="M51.0525 40.2315H45.9472V46.2887C45.9472 47.6968 47.093 48.8421 48.5013 48.8421C48.9979 48.8421 49.4812 48.6975 49.8988 48.4239L50.3084 48.1553L52.0736 52.4167V41.2525C52.0736 40.6886 51.6164 40.2315 51.0525 40.2315Z" fill="#D5DCED"/>
<path d="M50.306 31.7907C49.8231 31.3079 49.1834 31.0421 48.5046 31.0421C47.095 31.0421 45.9483 32.1877 45.9483 33.5958V36.1474H51.0535C51.6174 36.1474 52.0745 35.6902 52.0745 35.1264V33.5595L50.306 31.7907Z" fill="#D5DCED"/>
<path d="M47.9893 33.5958V46.2887C47.9893 46.6947 48.4401 46.9382 48.7798 46.7156L51.2515 45.0957L54.4174 52.7389C54.6332 53.2599 55.2305 53.5073 55.7514 53.2916L57.2992 52.6504C57.8202 52.4346 58.0676 51.8373 57.8519 51.3163L54.6861 43.6731L57.5904 43.0853C57.9895 43.0045 58.1381 42.5119 57.8501 42.2239L48.861 33.2348C48.5393 32.913 47.9893 33.1408 47.9893 33.5958Z" fill="#464655"/>
<path d="M44.9262 32.0632H27.5684C27.0045 32.0632 26.5474 31.606 26.5474 31.0422C26.5474 30.4783 27.0046 30.0212 27.5684 30.0212H44.9262C45.4902 30.0212 45.9472 30.4784 45.9472 31.0422C45.9472 31.606 45.4902 32.0632 44.9262 32.0632Z" fill="#7F8499"/>
<path d="M44.9262 50.442H27.5684C27.0045 50.442 26.5474 49.9848 26.5474 49.421C26.5474 48.8571 27.0046 48.4 27.5684 48.4H44.9262C45.4902 48.4 45.9472 48.8572 45.9472 49.421C45.9472 49.9849 45.4902 50.442 44.9262 50.442Z" fill="#7F8499"/>
</g>
<defs>
<clipPath id="clip0">
<rect width="58" height="58" fill="white"/>
</clipPath>
</defs>
</svg>
